<svg width="40" height="40" viewBox="0 0 40 40" fill="none" xmlns="http://www.w3.org/2000/svg">
<path d="M34.4 16L32.2 15.6C32 15.2 32 14.8 31.8 14.4L33 12.6L34 11.2L28.8 6L27.4 7L25.6 8.2C25.2 8 24.8 8 24.4 7.8L24 5.6L23.6 4H16.4L16 5.6L15.6 7.8C15.2 8 14.8 8 14.4 8.2L12.6 7L11.2 6.2L6.2 11.2L7.2 12.6L8.4 14.4C8 14.8 8 15.2 7.8 15.6L5.6 16L4 16.4V23.6L5.6 24L7.8 24.4C8 24.8 8 25.2 8.2 25.6L7 27.4L6 28.8L11.2 34L12.6 33L14.4 31.8C14.8 32 15.2 32 15.6 32.2L16 34.4L16.4 36H23.6L24 34.4L24.4 32.2C24.8 32 25.2 32 25.6 31.8L27.4 33L28.8 34L34 28.8L33 27.4L31.8 25.6C32 25.2 32.2 24.8 32.2 24.4L34.4 24L36 23.6V16.4L34.4 16V16ZM34 22L30.6 22.6C30.4 23.6 30 24.6 29.4 25.6L31.2 28.4L28.4 31.2L25.6 29.4C24.6 30 23.6 30.4 22.6 30.6L22 34H18L17.4 30.6C16.4 30.4 15.4 30 14.4 29.4L11.6 31.2L8.8 28.4L10.6 25.6C10 24.6 9.6 23.6 9.4 22.6L6 22V18L9.4 17.4C9.6 16.4 10 15.4 10.6 14.4L8.6 11.6L11.4 8.8L14.2 10.6C15.2 10 16.2 9.6 17.2 9.4L18 6H22L22.6 9.4C23.6 9.6 24.6 10 25.6 10.6L28.4 8.8L31.2 11.6L29.4 14.4C30 15.4 30.4 16.4 30.6 17.4L34 18V22Z" fill="currentColor"/>
<path d="M20 13C16.2 13 13 16.2 13 20C13 23.8 16.2 27 20 27C23.8 27 27 23.8 27 20C27 16.2 23.8 13 20 13ZM20 25C17.2 25 15 22.8 15 20C15 17.2 17.2 15 20 15C22.8 15 25 17.2 25 20C25 22.8 22.8 25 20 25Z" fill="currentColor"/>
</svg>
