<svg width="64" height="64" viewBox="0 0 64 64" fill="none" xmlns="http://www.w3.org/2000/svg">
<path fill-rule="evenodd" clip-rule="evenodd" d="M30 10V4H34V10H30ZM41.2681 11.9476L44.2681 6.75146L47.7322 8.75146L44.7322 13.9476L41.2681 11.9476ZM32 46C39.732 46 46 39.732 46 32C46 24.268 39.732 18 32 18C24.268 18 18 24.268 18 32C18 39.732 24.268 46 32 46ZM32 50C41.9411 50 50 41.9411 50 32C50 22.0589 41.9411 14 32 14C22.0589 14 14 22.0589 14 32C14 41.9411 22.0589 50 32 50ZM54 30H60V34H54V30ZM55.2487 16.2679L50.0525 19.2679L52.0525 22.732L57.2487 19.7321L55.2487 16.2679ZM16.2679 8.75146L19.2679 13.9476L22.732 11.9476L19.7321 6.75146L16.2679 8.75146ZM11.9475 22.732L6.75134 19.7321L8.75134 16.2679L13.9475 19.2679L11.9475 22.732ZM30 54V60H34V54H30ZM10 30H4V34H10V30ZM6.75124 44.2679L11.9474 41.2679L13.9474 44.7321L8.75124 47.7321L6.75124 44.2679ZM19.2681 50.0527L16.2681 55.2489L19.7322 57.2489L22.7322 52.0527L19.2681 50.0527ZM44.2679 57.2489L41.2679 52.0527L44.7321 50.0527L47.7321 55.2489L44.2679 57.2489ZM50.0526 44.7321L55.2488 47.7321L57.2488 44.2679L52.0526 41.2679L50.0526 44.7321Z" fill="currentColor"/>
</svg>
