<svg width="40" height="40" viewBox="0 0 40 40" fill="none" xmlns="http://www.w3.org/2000/svg">
<path d="M4.16667 7.36665C4.16667 6.24655 4.16667 5.6865 4.38465 5.25868C4.5764 4.88235 4.88236 4.57639 5.25869 4.38464C5.68651 4.16666 6.24656 4.16666 7.36667 4.16666H32.6333C33.7534 4.16666 34.3135 4.16666 34.7413 4.38464C35.1176 4.57639 35.4236 4.88235 35.6153 5.25868C35.8333 5.6865 35.8333 6.24655 35.8333 7.36666V32.6333C35.8333 33.7534 35.8333 34.3135 35.6153 34.7413C35.4236 35.1176 35.1176 35.4236 34.7413 35.6153C34.3135 35.8333 33.7534 35.8333 32.6333 35.8333H7.36667C6.24656 35.8333 5.68651 35.8333 5.25869 35.6153C4.88236 35.4236 4.5764 35.1176 4.38465 34.7413C4.16667 34.3135 4.16667 33.7534 4.16667 32.6333V7.36665Z" stroke="currentColor" stroke-width="2" stroke-linecap="round"/>
<path d="M31 36L23 16" stroke="currentColor" stroke-width="2"/>
<path d="M36 13L4 20" stroke="currentColor" stroke-width="2"/>
</svg>
