<svg width="40" height="40" viewBox="0 0 40 40" fill="none" xmlns="http://www.w3.org/2000/svg">
<path d="M3.33333 20L2.55246 19.3753L2.05271 20L2.55246 20.6247L3.33333 20ZM18.3333 21C18.8856 21 19.3333 20.5523 19.3333 20C19.3333 19.4477 18.8856 19 18.3333 19V21ZM9.21913 11.042L2.55246 19.3753L4.1142 20.6247L10.7809 12.2914L9.21913 11.042ZM2.55246 20.6247L9.21913 28.958L10.7809 27.7087L4.1142 19.3753L2.55246 20.6247ZM3.33333 21H18.3333V19H3.33333V21Z" fill="currentColor"/>
<path d="M16.6667 13.5532V10.0552C16.6667 8.43681 16.6667 7.62764 17.1406 7.06815C17.6146 6.50866 18.4127 6.37563 20.0091 6.10958L29.6803 4.49771C32.9234 3.9572 34.5449 3.68694 35.6058 4.58563C36.6667 5.48433 36.6667 7.12825 36.6667 10.4161V29.5839C36.6667 32.8717 36.6667 34.5156 35.6058 35.4143C34.5449 36.313 32.9234 36.0428 29.6803 35.5022L20.0091 33.8904C18.4127 33.6243 17.6146 33.4913 17.1406 32.9318C16.6667 32.3723 16.6667 31.5631 16.6667 29.9448V26.7766" stroke="currentColor" stroke-width="2"/>
</svg>
